<?xml version="1.0" encoding="UTF-8" standalone="no"?><!-- Generator: Gravit.io --><svg xmlns="http://www.w3.org/2000/svg" xmlns:xlink="http://www.w3.org/1999/xlink" style="isolation:isolate" viewBox="571.368 372.055 162.713 84.176" width="162.713pt" height="84.176pt"><defs><clipPath id="_clipPath_rfXjqxVMJhlHnxXMPVn3MlZTotdqxMxM"><rect x="571.368" y="372.055" width="162.713" height="84.176"/></clipPath></defs><g clip-path="url(#_clipPath_rfXjqxVMJhlHnxXMPVn3MlZTotdqxMxM)"><path d=" M 589.247 417.477 L 589.247 417.477 L 589.247 417.477 Q 590.018 415.271 591.684 412.978 L 591.684 412.978 L 591.684 412.978 Q 595.469 407.919 601.461 404.65 L 601.461 404.65 L 601.461 404.65 Q 606.056 402.162 613.846 400.788 L 613.846 400.788 L 613.846 400.788 Q 618.797 399.915 623.579 400.107 L 623.579 400.107 L 623.579 400.107 Q 627.578 400.116 630.244 399.646 L 630.244 399.646 L 630.244 399.646 Q 632.91 399.176 634.743 398.335 L 634.743 398.335 L 634.743 398.335 Q 636.576 397.494 638.091 396.37 L 638.091 396.37 L 638.091 396.37 Q 641.305 393.947 642.408 391.289 L 642.408 391.289 L 642.408 391.289 Q 642.65 390.64 642.996 390.579 L 642.996 390.579 L 642.996 390.579 Q 643.343 390.518 643.416 390.933 L 643.416 390.933 L 643.416 390.933 Q 643.489 391.349 642.522 393.054 L 642.522 393.054 L 642.522 393.054 Q 641.556 394.76 639.762 396.432 L 639.762 396.432 L 639.762 396.432 Q 637.969 398.105 635.647 399.514 L 635.647 399.514 L 635.647 399.514 Q 630.739 402.45 624.991 403.464 L 624.991 403.464 L 624.991 403.464 Q 621.391 404.098 616.973 403.949 L 616.973 403.949 L 616.973 403.949 Q 610.123 403.765 607.059 404.305 L 607.059 404.305 L 607.059 404.305 Q 603.994 404.845 601.92 405.836 L 601.92 405.836 L 601.92 405.836 Q 599.846 406.826 597.948 408.214 L 597.948 408.214 L 597.948 408.214 Q 596.051 409.602 594.437 411.279 L 594.437 411.279 L 594.437 411.279 Q 592.823 412.955 591.707 414.723 L 591.707 414.723 L 591.707 414.723 Q 588.476 419.684 589.247 417.477 Z  M 576.185 449.589 L 576.185 449.589 Q 576.307 450.281 575.828 450.901 L 575.828 450.901 L 575.828 450.901 Q 575.348 451.521 574.413 451.686 L 574.413 451.686 L 574.413 451.686 Q 573.478 451.851 572.829 451.608 L 572.829 451.608 L 572.865 451.816 L 572.865 451.816 Q 573.451 455.14 578.36 455.238 L 578.36 455.238 L 578.36 455.238 Q 579.862 455.259 581.992 454.883 L 581.992 454.883 L 581.992 454.883 Q 584.121 454.508 586.723 453.067 L 586.723 453.067 L 586.723 453.067 Q 589.325 451.627 591.724 449.24 L 591.724 449.24 L 591.724 449.24 Q 596.826 444.164 600.302 435.733 L 600.302 435.733 L 600.302 435.733 Q 601.404 433.076 602.909 430.276 L 602.909 430.276 L 606.246 424.297 L 606.246 424.297 Q 610.548 417.113 615.15 411.625 L 615.15 411.625 L 615.15 411.625 Q 619.134 406.888 620.415 406.662 L 620.415 406.662 L 620.415 406.662 Q 620.9 406.577 620.955 406.888 L 620.955 406.888 L 620.955 406.888 Q 621.016 407.235 620.156 408.029 L 620.156 408.029 L 620.156 408.029 Q 619.297 408.823 618.466 409.683 L 618.466 409.683 L 618.466 409.683 Q 617.636 410.544 616.929 411.489 L 616.929 411.489 L 616.929 411.489 Q 616.221 412.435 615.564 413.569 L 615.564 413.569 L 615.564 413.569 Q 614.907 414.702 614.147 416.264 L 614.147 416.264 L 614.147 416.264 Q 613.387 417.826 612.477 419.95 L 612.477 419.95 L 610.35 424.894 L 610.35 424.894 Q 598.452 452.981 581.418 455.984 L 581.418 455.984 L 581.418 455.984 Q 577.714 456.637 574.918 455.56 L 574.918 455.56 L 574.918 455.56 Q 571.89 454.38 571.432 451.783 L 571.432 451.783 L 571.432 451.783 Q 571.187 450.398 571.88 449.669 L 571.88 449.669 L 571.88 449.669 Q 572.892 448.527 573.792 448.368 L 573.792 448.368 L 573.792 448.368 Q 575.904 447.996 576.185 449.589 L 576.185 449.589 L 576.185 449.589 Z  M 633.625 443.619 L 633.625 443.619 L 633.625 443.619 Q 631.674 445.409 629.288 446.758 L 629.288 446.758 L 629.288 446.758 Q 626.902 448.107 624.617 448.51 L 624.617 448.51 L 624.617 448.51 Q 622.331 448.913 621.055 448.656 L 621.055 448.656 L 621.055 448.656 Q 619.778 448.399 618.87 447.703 L 618.87 447.703 L 618.87 447.703 Q 614.992 444.745 617.067 437.275 L 617.067 437.275 L 617.067 437.275 Q 617.949 433.978 620.38 430.961 L 620.38 430.961 L 620.38 430.961 Q 622.811 427.945 624.772 426.314 L 624.772 426.314 L 624.772 426.314 Q 628.569 423.145 632.274 422.492 L 632.274 422.492 L 632.274 422.492 Q 635.943 421.845 636.519 424.099 L 636.519 424.099 L 636.519 424.099 Q 637.415 427.761 628.94 433.754 L 628.94 433.754 L 628.94 433.754 Q 625.828 435.945 620.968 438.551 L 620.968 438.551 L 620.968 438.551 Q 619.512 442.235 619.881 444.329 L 619.881 444.329 L 619.881 444.329 Q 620.25 446.424 621.497 447.114 L 621.497 447.114 L 621.497 447.114 Q 622.743 447.805 624.838 447.436 L 624.838 447.436 L 624.838 447.436 Q 626.932 447.066 629.214 445.736 L 629.214 445.736 L 629.214 445.736 Q 631.497 444.405 633.382 442.645 L 633.382 442.645 L 633.382 442.645 Q 635.267 440.884 636.711 438.952 L 636.711 438.952 L 636.711 438.952 Q 638.155 437.02 639.226 435.296 L 639.226 435.296 L 639.226 435.296 Q 640.296 433.572 640.952 432.332 L 640.952 432.332 L 640.952 432.332 Q 641.608 431.092 641.871 430.76 L 641.871 430.76 L 642.701 431.22 L 642.701 431.22 Q 642.319 431.68 641.609 433.019 L 641.609 433.019 L 641.609 433.019 Q 640.899 434.358 639.762 436.111 L 639.762 436.111 L 639.762 436.111 Q 638.625 437.865 637.101 439.847 L 637.101 439.847 L 637.101 439.847 Q 635.576 441.829 633.625 443.619 Z  M 621.551 437.198 L 621.551 437.198 L 621.551 437.198 Q 631.36 431.685 633.731 427.518 L 633.731 427.518 L 633.731 427.518 Q 634.521 426.13 634.32 424.987 L 634.32 424.987 L 634.32 424.987 Q 633.978 423.048 632.178 423.366 L 632.178 423.366 L 632.178 423.366 Q 628.992 423.927 625.197 430.344 L 625.197 430.344 L 625.197 430.344 Q 622.557 434.808 621.551 437.198 Z  M 647.712 439.19 L 645.237 443.981 L 645.237 443.981 Q 644.272 443.973 643.129 444.175 L 643.129 444.175 L 643.129 444.175 Q 641.294 444.498 639.971 445.089 L 639.971 445.089 L 648.956 425.798 L 648.956 425.798 Q 650.651 422.25 650.617 421.649 L 650.617 421.649 L 650.617 421.649 Q 650.554 420.482 649.688 420.635 L 649.688 420.635 L 649.688 420.635 Q 648.407 420.861 644.435 428.094 L 644.435 428.094 L 642.701 431.22 L 642.701 431.22 Q 642.449 431.407 642.103 431.165 L 642.103 431.165 L 642.103 431.165 Q 641.757 430.923 641.871 430.76 L 641.871 430.76 L 641.871 430.76 Q 642.685 429.509 643.659 427.642 L 643.659 427.642 L 643.659 427.642 Q 644.633 425.775 645.749 424.007 L 645.749 424.007 L 645.749 424.007 Q 648.477 419.635 650.727 419.238 L 650.727 419.238 L 650.727 419.238 Q 654.536 418.567 653.841 422.723 L 653.841 422.723 L 653.841 422.723 Q 653.71 423.603 653.007 425.083 L 653.007 425.083 L 647.519 436.475 L 647.759 436.825 L 647.759 436.825 Q 654.799 425.731 657.926 422.003 L 657.926 422.003 L 657.926 422.003 Q 660.91 418.478 662.535 417.674 L 662.535 417.674 L 662.535 417.674 Q 664.161 416.869 665.251 416.677 L 665.251 416.677 L 665.251 416.677 Q 666.342 416.485 667.176 416.659 L 667.176 416.659 L 667.176 416.659 Q 668.01 416.833 668.58 417.233 L 668.58 417.233 L 668.58 417.233 Q 669.639 417.974 669.844 419.241 L 669.844 419.241 L 669.844 419.241 Q 670.05 420.508 669.814 421.906 L 669.814 421.906 L 669.814 421.906 Q 669.579 423.304 668.788 425.299 L 668.788 425.299 L 668.788 425.299 Q 667.122 429.413 662.667 436.339 L 662.667 436.339 L 662.667 436.339 Q 660.803 439.131 660.77 439.547 L 660.77 439.547 L 660.77 439.547 Q 660.736 439.963 660.773 440.171 L 660.773 440.171 L 660.773 440.171 Q 660.913 440.967 663.042 440.592 L 663.042 440.592 L 663.042 440.592 Q 665.171 440.217 666.868 439.007 L 666.868 439.007 L 666.868 439.007 Q 668.565 437.798 670.11 436.133 L 670.11 436.133 L 670.11 436.133 Q 671.655 434.468 672.981 432.575 L 672.981 432.575 L 672.981 432.575 Q 674.307 430.681 675.328 428.983 L 675.328 428.983 L 675.328 428.983 Q 676.35 427.286 677.023 426.043 L 677.023 426.043 L 677.023 426.043 Q 677.696 424.8 677.947 424.398 L 677.947 424.398 L 678.778 424.859 L 678.778 424.859 Q 678.499 425.301 677.8 426.602 L 677.8 426.602 L 677.8 426.602 Q 677.101 427.903 676.031 429.627 L 676.031 429.627 L 676.031 429.627 Q 674.96 431.351 673.574 433.309 L 673.574 433.309 L 673.574 433.309 Q 672.188 435.267 670.563 436.981 L 670.563 436.981 L 670.563 436.981 Q 666.762 440.936 663.23 441.558 L 663.23 441.558 L 663.23 441.558 Q 660.114 442.108 658.628 440.764 L 658.628 440.764 L 658.628 440.764 Q 658.162 440.346 658.046 439.688 L 658.046 439.688 L 658.046 439.688 Q 657.93 439.03 657.971 438.148 L 657.971 438.148 L 657.971 438.148 Q 658.011 437.267 658.506 435.823 L 658.506 435.823 L 658.506 435.823 Q 659.639 432.732 662.042 428.845 L 662.042 428.845 L 662.042 428.845 Q 664.444 424.959 665.172 423.617 L 665.172 423.617 L 665.172 423.617 Q 665.899 422.275 666.3 421.311 L 666.3 421.311 L 666.3 421.311 Q 667.046 419.466 666.887 418.566 L 666.887 418.566 L 666.887 418.566 Q 666.667 417.32 665.006 417.613 L 665.006 417.613 L 665.006 417.613 Q 661.578 418.217 655.052 427.365 L 655.052 427.365 L 655.052 427.365 Q 651.754 431.944 647.712 439.19 L 647.712 439.19 L 647.712 439.19 Z  M 670.819 439.649 L 699.494 378.154 L 699.494 378.154 Q 701.846 378.131 704.272 377.311 L 704.272 377.311 L 682.768 421.978 L 682.768 421.978 Q 676.742 435.178 675.255 438.689 L 675.255 438.689 L 675.255 438.689 Q 674.289 438.68 673.649 438.793 L 673.649 438.793 L 673.649 438.793 Q 673.008 438.906 672.668 439.002 L 672.668 439.002 L 672.668 439.002 Q 672.328 439.097 671.974 439.214 L 671.974 439.214 L 671.974 439.214 Q 671.619 439.33 671.32 439.454 L 671.32 439.454 L 671.32 439.454 Q 671.021 439.578 670.819 439.649 L 670.819 439.649 L 670.819 439.649 Z  M 691.018 434.552 L 691.018 434.552 L 691.018 434.552 Q 691.207 435.626 692.904 435.327 L 692.904 435.327 L 692.904 435.327 Q 694.6 435.027 696.371 433.734 L 696.371 433.734 L 696.371 433.734 Q 698.142 432.44 699.779 430.687 L 699.779 430.687 L 699.779 430.687 Q 701.415 428.935 702.833 426.954 L 702.833 426.954 L 702.833 426.954 Q 704.251 424.972 705.345 423.28 L 705.345 423.28 L 705.345 423.28 Q 706.997 420.704 707.785 419.102 L 707.785 419.102 L 708.587 419.603 L 708.587 419.603 Q 708.473 419.766 707.774 420.96 L 707.774 420.96 L 707.774 420.96 Q 707.074 422.154 705.937 423.907 L 705.937 423.907 L 705.937 423.907 Q 704.801 425.661 703.285 427.695 L 703.285 427.695 L 703.285 427.695 Q 701.77 429.729 700.024 431.572 L 700.024 431.572 L 700.024 431.572 Q 696.018 435.777 692.625 436.375 L 692.625 436.375 L 692.625 436.375 Q 689.162 436.986 688.509 433.281 L 688.509 433.281 L 688.509 433.281 Q 687.966 430.2 691.463 425.335 L 691.463 425.335 L 691.463 425.335 Q 692.848 423.27 692.739 422.647 L 692.739 422.647 L 692.739 422.647 Q 692.494 421.262 690.33 420.93 L 690.33 420.93 L 690.33 420.93 Q 688.488 422.433 686.93 422.707 L 686.93 422.707 L 686.93 422.707 Q 684.334 423.165 684.144 422.092 L 684.144 422.092 L 684.144 422.092 Q 684.035 421.469 684.936 420.81 L 684.936 420.81 L 684.936 420.81 Q 685.837 420.151 687.274 419.898 L 687.274 419.898 L 687.274 419.898 Q 688.711 419.645 690.093 419.793 L 690.093 419.793 L 690.093 419.793 Q 691.104 419.044 691.611 418.276 L 691.611 418.276 L 691.611 418.276 Q 692.853 416.415 693.86 414.631 L 693.86 414.631 L 693.86 414.631 Q 694.866 412.848 695.86 411.601 L 695.86 411.601 L 695.86 411.601 Q 698.111 408.777 700.811 408.301 L 700.811 408.301 L 700.811 408.301 Q 702.473 408.008 703.647 408.693 L 703.647 408.693 L 703.647 408.693 Q 704.821 409.379 705 410.596 L 705 410.596 L 705 410.596 Q 705.179 411.814 704.55 412.497 L 704.55 412.497 L 704.55 412.497 Q 703.921 413.179 703.055 413.331 L 703.055 413.331 L 703.055 413.331 Q 702.189 413.484 701.445 413.008 L 701.445 413.008 L 701.445 413.008 Q 700.701 412.533 700.601 411.765 L 700.601 411.765 L 700.601 411.765 Q 700.449 410.292 701.691 409.645 L 701.691 409.645 L 701.691 409.645 Q 701.098 409.321 700.285 409.465 L 700.285 409.465 L 700.285 409.465 Q 699.471 409.608 698.744 410.04 L 698.744 410.04 L 698.744 410.04 Q 698.017 410.471 697.245 411.357 L 697.245 411.357 L 697.245 411.357 Q 695.66 413.1 693.542 417.079 L 693.542 417.079 L 693.542 417.079 Q 692.517 418.759 691.315 420.042 L 691.315 420.042 L 691.315 420.042 Q 694.873 420.986 695.398 423.963 L 695.398 423.963 L 695.398 423.963 Q 695.825 426.387 694.074 429.409 L 694.074 429.409 L 694.074 429.409 Q 693.334 430.681 692.438 431.875 L 692.438 431.875 L 692.438 431.875 Q 690.896 433.86 691.018 434.552 Z  M 706.274 431.791 L 706.274 431.791 L 706.274 431.791 Q 706.476 432.934 708.138 432.641 L 708.138 432.641 L 708.138 432.641 Q 709.799 432.347 711.531 431.132 L 711.531 431.132 L 711.531 431.132 Q 713.262 429.916 714.876 428.239 L 714.876 428.239 L 714.876 428.239 Q 716.49 426.563 717.938 424.647 L 717.938 424.647 L 717.938 424.647 Q 719.385 422.732 720.548 421.028 L 720.548 421.028 L 722.485 418.045 L 722.485 418.045 Q 723.259 416.766 723.544 416.358 L 723.544 416.358 L 724.34 416.825 L 724.34 416.825 Q 724.027 417.273 723.207 418.596 L 723.207 418.596 L 723.207 418.596 Q 722.387 419.918 721.178 421.666 L 721.178 421.666 L 721.178 421.666 Q 719.969 423.415 718.444 425.397 L 718.444 425.397 L 718.444 425.397 Q 716.92 427.379 715.191 429.112 L 715.191 429.112 L 715.191 429.112 Q 711.147 433.109 707.685 433.72 L 707.685 433.72 L 707.685 433.72 Q 706.231 433.976 705.139 433.348 L 705.139 433.348 L 705.139 433.348 Q 704.046 432.719 703.884 431.802 L 703.884 431.802 L 703.884 431.802 Q 703.723 430.884 703.711 430.315 L 703.711 430.315 L 703.711 430.315 Q 703.7 429.746 703.852 428.987 L 703.852 428.987 L 703.852 428.987 Q 704.004 428.229 704.355 427.185 L 704.355 427.185 L 704.355 427.185 Q 704.707 426.141 705.334 424.639 L 705.334 424.639 L 709.252 415.88 L 729.269 372.903 L 729.269 372.903 Q 731.823 372.81 734.081 372.055 L 734.081 372.055 L 734.081 372.055 Q 709.147 423.788 708.278 425.744 L 708.278 425.744 L 708.278 425.744 Q 707.409 427.7 707.011 428.68 L 707.011 428.68 L 707.011 428.68 Q 706.613 429.661 706.433 430.264 L 706.433 430.264 L 706.433 430.264 Q 706.164 431.168 706.274 431.791 Z " fill="rgb(195,36,36)"/></g></svg>